<svg width="30" height="44" viewBox="0 0 30 44" fill="none" xmlns="http://www.w3.org/2000/svg">
<path d="M0 6C0 2.68629 2.68629 0 6 0H24C27.3137 0 30 2.68629 30 6V38C30 41.3137 27.3137 44 24 44H6C2.68629 44 0 41.3137 0 38V6Z" fill="url(#paint0_linear_13_909)"/>
<path fill-rule="evenodd" clip-rule="evenodd" d="M24 44H6C2.68629 44 0 41.3137 0 38V6C2.34282e-08 2.68629 2.68629 1.28851e-08 6 0H24C27.3137 0 30 2.68629 30 6V38C30 41.3137 27.3137 44 24 44ZM24 43H6C3.23858 43 1 40.7614 1 38V6C1 3.23858 3.23858 1 6 1H24C26.7614 1 29 3.23858 29 6V38C29 40.7614 26.7614 43 24 43Z" fill="url(#paint1_linear_13_909)" fill-opacity="0.05"/>
<g opacity="0.5" style="mix-blend-mode:soft-light">
<path d="M0 6C0 2.68629 2.68629 0 6 0H24C27.3137 0 30 2.68629 30 6V38C30 41.3137 27.3137 44 24 44H6C2.68629 44 0 41.3137 0 38V6Z" fill="url(#paint2_linear_13_909)"/>
</g>
<path d="M23 32C23 36.4183 19.4183 40 15 40C10.5817 40 7 36.4183 7 32C7 27.5817 10.5817 24 15 24C19.4183 24 23 27.5817 23 32Z" fill="#F3F3F3"/>
<path d="M23 32C23 27.5817 19.4183 24 15 24C10.5817 24 7 27.5817 7 32C7 36.4183 10.5817 40 15 40C19.4183 40 23 36.4183 23 32ZM24 32C24 36.9706 19.9706 41 15 41C10.0294 41 6 36.9706 6 32C6 27.0294 10.0294 23 15 23C19.9706 23 24 27.0294 24 32Z" fill="black" fill-opacity="0.05"/>
<path d="M18 32C18 33.6569 16.6569 35 15 35C13.3431 35 12 33.6569 12 32C12 30.3431 13.3431 29 15 29C16.6569 29 18 30.3431 18 32Z" fill="url(#paint3_linear_13_909)"/>
<path fill-rule="evenodd" clip-rule="evenodd" d="M15 35C13.3431 35 12 33.6569 12 32C12 30.3431 13.3431 29 15 29C16.6569 29 18 30.3431 18 32C18 33.6569 16.6569 35 15 35ZM15 30C16.1046 30 17 30.8954 17 32C17 33.1046 16.1046 34 15 34C13.8954 34 13 33.1046 13 32C13 30.8954 13.8954 30 15 30Z" fill="black" fill-opacity="0.02"/>
<mask id="mask0_13_909" style="mask-type:alpha" maskUnits="userSpaceOnUse" x="3" y="3" width="24" height="18">
<rect x="3" y="3" width="24" height="18" rx="3" fill="#D9D9D9"/>
</mask>
<g mask="url(#mask0_13_909)">
<path d="M3 6C3 4.34315 4.34315 3 6 3H24C25.6569 3 27 4.34315 27 6V18C27 19.6569 25.6569 21 24 21H6C4.34315 21 3 19.6569 3 18V6Z" fill="#313131"/>
<path d="M6 20.5C5.91429 20.5 5.82958 20.4957 5.74609 20.4873C5.82958 20.4957 5.91429 20.5 6 20.5ZM5.68066 20.4775C5.62176 20.47 5.56341 20.4617 5.50586 20.4502C5.56341 20.4617 5.62176 20.47 5.68066 20.4775ZM24.4932 20.4502C24.4356 20.4617 24.3773 20.47 24.3184 20.4775C24.3773 20.47 24.4356 20.4617 24.4932 20.4502ZM5.40527 20.4258C5.35805 20.4142 5.31078 20.4038 5.26465 20.3896C5.31078 20.4038 5.35805 20.4142 5.40527 20.4258ZM24.7344 20.3896C24.6882 20.4038 24.641 20.4143 24.5938 20.4258C24.641 20.4143 24.6882 20.4038 24.7344 20.3896ZM5.19434 20.3643C5.14128 20.3462 5.0885 20.3281 5.03711 20.3066C5.0885 20.3281 5.14127 20.3462 5.19434 20.3643ZM24.9619 20.3066C24.9105 20.3281 24.8578 20.3462 24.8047 20.3643C24.8578 20.3462 24.9105 20.3281 24.9619 20.3066ZM4.95117 20.2666C4.90904 20.2471 4.86699 20.2278 4.82617 20.2061C4.86699 20.2278 4.90904 20.2471 4.95117 20.2666ZM25.1729 20.2061C25.132 20.2278 25.09 20.2471 25.0479 20.2666C25.09 20.2471 25.132 20.2278 25.1729 20.2061ZM4.72559 20.1475C4.69088 20.1268 4.65567 20.1072 4.62207 20.085C4.65567 20.1072 4.69088 20.1268 4.72559 20.1475ZM25.377 20.085C25.3433 20.1072 25.3082 20.1268 25.2734 20.1475C25.3082 20.1268 25.3433 20.1072 25.377 20.085ZM4.53906 20.0254C4.5 19.9972 4.46115 19.9689 4.42383 19.9385C4.46115 19.9689 4.5 19.9972 4.53906 20.0254ZM25.5752 19.9385C25.5379 19.9689 25.499 19.9972 25.46 20.0254C25.499 19.9972 25.5379 19.9689 25.5752 19.9385ZM4.36133 19.8848C4.32443 19.8527 4.28788 19.8203 4.25293 19.7861C4.28788 19.8203 4.32443 19.8527 4.36133 19.8848ZM25.7461 19.7861C25.7111 19.8203 25.6746 19.8527 25.6377 19.8848C25.6746 19.8527 25.7111 19.8203 25.7461 19.7861ZM4.18555 19.7158C4.15132 19.6796 4.117 19.6436 4.08496 19.6055C4.117 19.6436 4.15132 19.6796 4.18555 19.7158ZM25.9141 19.6055C25.882 19.6436 25.8477 19.6796 25.8135 19.7158C25.8477 19.6796 25.882 19.6436 25.9141 19.6055ZM4.04102 19.5488C4.00783 19.5069 3.97483 19.4649 3.94434 19.4209C3.97483 19.4649 4.00783 19.5069 4.04102 19.5488ZM26.0547 19.4209C26.0242 19.4649 25.9912 19.5069 25.958 19.5488C25.9912 19.5069 26.0242 19.4649 26.0547 19.4209ZM3.50977 18.1973C3.50819 18.1771 3.50402 18.157 3.50293 18.1367L3.5 18C3.5 18.0664 3.50468 18.1321 3.50977 18.1973ZM3.87891 19.3193C3.85998 19.289 3.84088 19.2588 3.82324 19.2275C3.84088 19.2588 3.85998 19.289 3.87891 19.3193ZM26.1758 19.2275C26.1582 19.2586 26.1399 19.2891 26.1211 19.3193C26.1399 19.2891 26.1582 19.2586 26.1758 19.2275ZM3.77148 19.1299C3.75126 19.0901 3.73199 19.0498 3.71387 19.0088C3.73199 19.0498 3.75126 19.0901 3.77148 19.1299ZM26.2852 19.0088C26.267 19.0498 26.2478 19.0901 26.2275 19.1299C26.2478 19.0901 26.267 19.0498 26.2852 19.0088ZM3.6748 18.9141C3.65806 18.8715 3.6414 18.8288 3.62695 18.7852C3.6414 18.8288 3.65806 18.8715 3.6748 18.9141ZM26.3721 18.7852C26.3576 18.8288 26.341 18.8715 26.3242 18.9141C26.341 18.8715 26.3576 18.8288 26.3721 18.7852ZM3.5957 18.6777C3.58442 18.6376 3.57278 18.5975 3.56348 18.5566C3.57278 18.5975 3.58442 18.6376 3.5957 18.6777ZM26.4355 18.5566C26.4262 18.5976 26.4146 18.6376 26.4033 18.6777C26.4146 18.6376 26.4262 18.5976 26.4355 18.5566ZM3.54102 18.4424C3.53322 18.3988 3.526 18.3549 3.52051 18.3105C3.52601 18.3549 3.53322 18.3988 3.54102 18.4424ZM26.4785 18.3105C26.473 18.3549 26.4658 18.3987 26.458 18.4424C26.4658 18.3987 26.473 18.3549 26.4785 18.3105ZM24.2529 20.4873C24.1698 20.4957 24.0854 20.5 24 20.5C24.0854 20.5 24.1698 20.4957 24.2529 20.4873ZM26.4961 18.1367C26.495 18.157 26.4908 18.1771 26.4893 18.1973C26.4944 18.1321 26.5 18.0665 26.5 18L26.4961 18.1367ZM4.50781 5.84668C4.58461 5.09028 5.22334 4.5 6 4.5H24C24.8284 4.5 25.5 5.17157 25.5 6V18C25.5 18.8284 24.8284 19.5 24 19.5H6C5.17157 19.5 4.5 18.8284 4.5 18V6L4.50781 5.84668Z" stroke="white" stroke-opacity="0.05"/>
<path d="M3 3H16L9 21H3V3Z" fill="url(#paint4_linear_13_909)"/>
</g>
<defs>
<linearGradient id="paint0_linear_13_909" x1="15" y1="20.9551" x2="15" y2="44" gradientUnits="userSpaceOnUse">
<stop stop-color="#E3E3E3"/>
<stop offset="1" stop-color="#BDBDBD"/>
</linearGradient>
<linearGradient id="paint1_linear_13_909" x1="15" y1="44" x2="15" y2="0" gradientUnits="userSpaceOnUse">
<stop stop-opacity="0.5"/>
<stop offset="1"/>
</linearGradient>
<linearGradient id="paint2_linear_13_909" x1="5.63415" y1="-5.47317" x2="38.3876" y2="39.1906" gradientUnits="userSpaceOnUse">
<stop stop-color="white"/>
<stop offset="1" stop-color="white" stop-opacity="0"/>
</linearGradient>
<linearGradient id="paint3_linear_13_909" x1="15" y1="29" x2="15" y2="34.1855" gradientUnits="userSpaceOnUse">
<stop stop-color="#B6B6B6"/>
<stop offset="1" stop-color="#ABABAB" stop-opacity="0"/>
</linearGradient>
<linearGradient id="paint4_linear_13_909" x1="21.9604" y1="-4.41292" x2="21.9604" y2="19.9103" gradientUnits="userSpaceOnUse">
<stop stop-color="white"/>
<stop offset="1" stop-color="#F6F6F6" stop-opacity="0"/>
</linearGradient>
</defs>
</svg>
