<svg width="1024" height="1024" viewBox="0 0 1024 1024" fill="none" xmlns="http://www.w3.org/2000/svg">
<path fill-rule="evenodd" clip-rule="evenodd" d="M736 864C665.308 864 608 806.693 608 736C608 665.308 665.308 608 736 608C806.692 608 864 665.308 864 736C864 806.693 806.692 864 736 864ZM778.667 664.889C778.667 657.034 785.034 650.667 792.889 650.667C800.744 650.667 807.111 657.034 807.111 664.889V707.556C807.111 715.41 800.744 721.778 792.889 721.778H750.222C742.368 721.778 736 715.41 736 707.556C736 699.701 742.368 693.333 750.222 693.333H763.54C762.108 692.541 760.641 691.81 759.141 691.142C752.163 688.035 744.631 686.365 736.994 686.231C729.357 686.097 721.771 687.503 714.689 690.364C707.607 693.225 701.173 697.484 695.772 702.885C690.218 708.439 681.213 708.439 675.659 702.885C670.105 697.331 670.105 688.326 675.659 682.771C683.761 674.67 693.411 668.283 704.034 663.991C714.657 659.699 726.036 657.59 737.492 657.791C748.947 657.991 760.245 660.497 770.712 665.158C773.438 666.371 776.093 667.725 778.667 669.211V664.889ZM734.508 814.209C745.964 814.41 757.343 812.301 767.966 808.009C778.589 803.718 788.239 797.33 796.341 789.229C801.895 783.675 801.895 774.67 796.341 769.115C790.787 763.561 781.782 763.561 776.228 769.115C770.827 774.517 764.393 778.775 757.311 781.636C750.229 784.497 742.643 785.903 735.006 785.769C727.369 785.636 719.837 783.965 712.859 780.858C711.359 780.19 709.892 779.459 708.46 778.667H721.778C729.633 778.667 736 772.299 736 764.445C736 756.59 729.633 750.222 721.778 750.222H679.111C671.256 750.222 664.889 756.59 664.889 764.445V807.111C664.889 814.966 671.256 821.333 679.111 821.333C686.966 821.333 693.333 814.966 693.333 807.111V802.789C695.907 804.275 698.562 805.629 701.288 806.843C711.755 811.503 723.053 814.009 734.508 814.209Z" fill="white" style="fill:white;fill-opacity:1;"/>
</svg>
